<?xml version="1.0" encoding="UTF-8"?>
<svg xmlns="http://www.w3.org/2000/svg" xmlns:xlink="http://www.w3.org/1999/xlink" width="23" height="33" viewBox="0 0 23 33" version="1.1">
<g id="surface1">
<path style=" stroke:none;fill-rule:nonzero;fill:rgb(10.196079%,45.09804%,90.980393%);fill-opacity:1;" d="M 15 0.566406 C 13.90625 0.214844 12.707031 0.015625 11.488281 0.015625 C 7.972656 0.015625 4.808594 1.609375 2.691406 4.128906 L 8.125 8.6875 Z M 15 0.566406 "/>
<path style=" stroke:none;fill-rule:nonzero;fill:rgb(91.764706%,26.274511%,20.784314%);fill-opacity:1;" d="M 2.691406 4.128906 C 1.023438 6.121094 0 8.714844 0 11.503906 C 0 13.671875 0.421875 15.417969 1.144531 16.984375 L 8.125 8.6875 Z M 2.691406 4.128906 "/>
<path style=" stroke:none;fill-rule:nonzero;fill:rgb(25.882354%,52.156866%,95.686275%);fill-opacity:1;" d="M 11.511719 7.117188 C 13.953125 7.117188 15.921875 9.085938 15.921875 11.527344 C 15.921875 12.601562 15.523438 13.597656 14.875 14.371094 C 14.875 14.371094 18.339844 10.234375 21.730469 6.222656 C 20.332031 3.53125 17.917969 1.488281 15 0.566406 L 8.125 8.6875 C 8.945312 7.742188 10.140625 7.117188 11.511719 7.117188 "/>
<path style=" stroke:none;fill-rule:nonzero;fill:rgb(98.431373%,73.725492%,1.568628%);fill-opacity:1;" d="M 11.511719 15.914062 C 9.070312 15.914062 7.101562 13.945312 7.101562 11.503906 C 7.101562 10.433594 7.476562 9.433594 8.125 8.6875 L 1.144531 16.984375 C 2.34375 19.628906 4.335938 21.769531 6.378906 24.4375 L 14.875 14.34375 C 14.054688 15.316406 12.859375 15.914062 11.511719 15.914062 "/>
<path style=" stroke:none;fill-rule:nonzero;fill:rgb(20.392157%,65.882355%,32.549021%);fill-opacity:1;" d="M 14.726562 27.226562 C 18.566406 21.222656 23.023438 18.507812 23.023438 11.527344 C 23.023438 9.609375 22.550781 7.816406 21.730469 6.222656 L 6.378906 24.4375 C 7.027344 25.285156 7.699219 26.253906 8.347656 27.253906 C 10.691406 30.867188 10.042969 33.007812 11.539062 33.007812 C 13.03125 33.007812 12.382812 30.839844 14.726562 27.226562 "/>
</g>
</svg>
