<?xml version="1.0" encoding="UTF-8"?>
<svg xmlns="http://www.w3.org/2000/svg" version="1.1" viewBox="0 0 442.37 119.1">
  <defs>
    <style>
      .cls-1, .cls-2, .cls-3 {
        fill: #00447c;
      }

      .cls-4 {
        fill: #231f20;
      }

      .cls-2, .cls-5 {
        fill-rule: evenodd;
      }

      .cls-5 {
        fill: #c8b18b;
      }

      .cls-3 {
        stroke: #00447c;
        stroke-miterlimit: 10;
        stroke-width: .5px;
      }
    </style>
  </defs>
  <!-- Generator: Adobe Illustrator 28.7.1, SVG Export Plug-In . SVG Version: 1.2.0 Build 142)  -->
  <g>
    <g id="Layer_1">
      <g>
        <path class="cls-3" d="M139.3,104.62c0-2.05-.13-2.18-1.12-2.38l-.55-.11c-.18-.13-.2-.62.04-.75,1.06.04,2.16.07,3.22.07s2.16-.02,3.22-.07c.18.13.18.62,0,.75l-.53.09c-.99.18-1.13.35-1.13,2.41v5.1c0,2.58.29,5.43,3.64,5.43,2.82,0,3.69-2.47,3.69-5.49v-2.67c0-1.79-.09-3.46-.33-4.04-.2-.46-.68-.6-1.28-.71l-.6-.11c-.18-.18-.13-.62,0-.75,1.19.04,2.05.07,2.96.07.82,0,1.63-.02,2.47-.07.13.13.18.57,0,.75l-.4.09c-.57.13-.99.26-1.19.73-.24.57-.33,2.25-.33,4.04v2.47c0,2.07-.2,3.97-1.41,5.32-.97,1.04-2.58,1.59-4.37,1.59-1.68,0-3.18-.27-4.37-1.24-1.15-.95-1.63-2.58-1.63-4.99v-5.52Z"/>
        <path class="cls-3" d="M159.99,112.79c0,2.07.13,2.23,1.15,2.41l.62.11c.18.13.15.64-.02.77-1.19-.04-2.27-.07-3.31-.07s-2.16.02-3.35.07c-.18-.13-.18-.64,0-.77l.62-.11c1.01-.18,1.15-.33,1.15-2.41v-8.12c0-2.07-.13-2.23-1.15-2.41l-.62-.11c-.18-.13-.18-.64,0-.77,1.19.04,2.29.07,3.35.07s2.14-.02,3.33-.07c.18.13.18.64,0,.77l-.62.11c-1.02.18-1.15.33-1.15,2.41v8.12Z"/>
        <path class="cls-3" d="M168.57,116.36c-2.03,0-3.29-.57-3.75-.84-.42-.49-.71-2.07-.71-3.57.15-.29.66-.31.84-.07.44,1.43,1.92,3.46,3.8,3.46,1.63,0,2.38-1.12,2.38-2.23,0-1.79-1.68-2.85-3-3.51-1.59-.79-3.33-2.12-3.33-4.3-.02-2.49,1.92-4.21,5.12-4.21.73,0,1.63.09,2.52.35.29.09.49.13.75.18.18.49.4,1.68.4,3.16-.11.26-.66.29-.86.07-.38-1.13-1.32-2.74-2.91-2.74-1.46,0-2.25.95-2.25,2.05,0,1.01.9,1.94,2.01,2.52l1.46.77c1.37.73,3.11,2.01,3.11,4.43,0,2.71-2.23,4.48-5.56,4.48Z"/>
        <path class="cls-1" d="M184.82,99.69h1.4v19.41h-1.4v-19.41Z"/>
        <path class="cls-1" d="M203.3,105.62c-.17-.35-.47-.74-.76-.97-.25-.19-.72-.45-1.46-.45-1.28,0-2.17.8-2.17,2,0,.5.14.8.48,1.13.39.39.87.6,1.36.82l1.24.54c.76.33,1.46.68,2,1.22.66.66.93,1.42.93,2.35,0,2.39-1.77,3.98-4.1,3.98-.85,0-1.92-.17-2.81-1.05-.64-.62-1.03-1.51-1.2-2.29l1.4-.39c.1.68.41,1.26.78,1.65.56.56,1.2.72,1.86.72,1.77,0,2.6-1.26,2.6-2.56,0-.58-.17-1.09-.64-1.51-.37-.35-.87-.58-1.55-.89l-1.16-.54c-.5-.23-1.15-.5-1.73-1.07-.56-.54-.89-1.15-.89-2.12,0-2,1.53-3.34,3.63-3.34.8,0,1.44.16,2.08.58.52.35.97.87,1.26,1.44l-1.15.76Z"/>
        <path class="cls-1" d="M219.31,105.92c-.41-.41-1.03-.89-1.69-1.2-.68-.31-1.48-.5-2.23-.5-2.99,0-5.2,2.41-5.2,5.4,0,3.51,2.85,5.28,5.22,5.28.87,0,1.73-.25,2.41-.6.74-.37,1.26-.85,1.49-1.09v1.79c-1.44,1.03-2.93,1.26-3.9,1.26-3.84,0-6.7-2.91-6.7-6.66s2.89-6.73,6.77-6.73c.78,0,2.27.1,3.82,1.28v1.79Z"/>
        <path class="cls-1" d="M225.23,103.06v12.95h-1.44v-12.95h1.44Z"/>
        <path class="cls-1" d="M237.13,104.42h-5.28v3.84h5.12v1.36h-5.12v5.03h5.28v1.36h-6.72v-12.95h6.72v1.36Z"/>
        <path class="cls-1" d="M241.61,116.01v-13.49l10.09,10.58v-10.04h1.44v13.53l-10.09-10.58v10h-1.44Z"/>
        <path class="cls-1" d="M268.23,105.92c-.41-.41-1.03-.89-1.69-1.2-.68-.31-1.48-.5-2.23-.5-2.99,0-5.2,2.41-5.2,5.4,0,3.51,2.85,5.28,5.22,5.28.87,0,1.73-.25,2.41-.6.74-.37,1.26-.85,1.49-1.09v1.79c-1.44,1.03-2.93,1.26-3.9,1.26-3.84,0-6.7-2.91-6.7-6.66s2.89-6.73,6.77-6.73c.78,0,2.27.1,3.82,1.28v1.79Z"/>
        <path class="cls-1" d="M279.43,104.42h-5.28v3.84h5.12v1.36h-5.12v5.03h5.28v1.36h-6.72v-12.95h6.72v1.36Z"/>
        <path class="cls-1" d="M300.23,111.27c-.35.49-.85,1.11-1.65,1.92l2.17,2.81h-1.79l-1.4-1.8c-1.13,1.12-2.7,2.04-4.17,2.04-2.12,0-3.75-1.53-3.75-3.59,0-1.4.74-2.25,1.17-2.68.68-.68,1.9-1.44,2.17-1.61-.87-1.13-1.28-1.9-1.28-2.78,0-1.36.95-2.74,2.81-2.74s2.74,1.3,2.74,2.6c0,.6-.17,1.46-1.2,2.35-.33.29-.21.14-1.05.83l2.7,3.47c.7-.74,1.11-1.2,1.48-1.71l1.05.87ZM293.83,109.43c-.95.58-1.46,1.01-1.82,1.34-.37.33-.91.85-.91,1.86,0,1.28.95,2.29,2.29,2.29s2.83-1.32,3.32-1.79l-2.87-3.71ZM294.18,107.58l.85-.66c.74-.58.87-1.05.87-1.49,0-.91-.72-1.34-1.4-1.34-.8,0-1.44.6-1.44,1.42,0,.56.27.93.52,1.28l.58.8Z"/>
        <path class="cls-1" d="M312.27,103.06v12.95h-1.44v-12.95h1.44Z"/>
        <path class="cls-1" d="M317.45,116.01v-13.49l10.09,10.58v-10.04h1.44v13.53l-10.09-10.58v10h-1.44Z"/>
        <path class="cls-1" d="M334.17,116.01v-13.49l10.09,10.58v-10.04h1.44v13.53l-10.09-10.58v10h-1.44Z"/>
        <path class="cls-1" d="M350.18,109.55c0-3.86,3.01-6.7,6.73-6.7s6.73,2.83,6.73,6.7-2.99,6.7-6.73,6.7-6.73-2.85-6.73-6.7ZM351.65,109.55c0,2.97,2.35,5.34,5.26,5.34s5.26-2.37,5.26-5.34-2.35-5.34-5.26-5.34-5.26,2.37-5.26,5.34Z"/>
        <path class="cls-1" d="M367.59,103.06l3.65,9.88,3.65-9.88h1.59l-5.24,13.72-5.24-13.72h1.59Z"/>
        <path class="cls-1" d="M386.28,112.36h-5.51l-1.55,3.65h-1.59l5.96-13.57,5.8,13.57h-1.59l-1.51-3.65ZM385.72,111l-2.17-5.18-2.21,5.18h4.39Z"/>
        <path class="cls-1" d="M395.37,104.42v11.59h-1.44v-11.59h-3.14v-1.36h7.73v1.36h-3.14Z"/>
        <path class="cls-1" d="M403.74,103.06v12.95h-1.44v-12.95h1.44Z"/>
        <path class="cls-1" d="M408.22,109.55c0-3.86,3.01-6.7,6.74-6.7s6.73,2.83,6.73,6.7-2.99,6.7-6.73,6.7-6.74-2.85-6.74-6.7ZM409.69,109.55c0,2.97,2.35,5.34,5.26,5.34s5.26-2.37,5.26-5.34-2.35-5.34-5.26-5.34-5.26,2.37-5.26,5.34Z"/>
        <path class="cls-1" d="M426.17,116.01v-13.49l10.09,10.58v-10.04h1.44v13.53l-10.09-10.58v10h-1.44Z"/>
      </g>
      <path class="cls-1" d="M121.53,85.65l-17.81-24.75h-2.47v24.75h-8.17V27.83h12.72c10.02,0,20.04,2.85,20.43,15.73.15,8.4-5.09,14.34-13.8,16.88l18.58,25.21h-9.48ZM105.26,34.54h-4.01v19.97h3.08c6.78,0,14.18-3.31,13.88-10.64-.31-7.79-6.71-9.33-12.95-9.33Z"/>
      <path class="cls-1" d="M139.73,85.65V27.83h7.86v57.82h-7.86Z"/>
      <path class="cls-1" d="M186.3,87.04c-15.73,0-30.37-12.1-30.37-28.6,0-18.27,11.95-31.45,31.22-31.45,15.8,0,29.6,13.41,29.6,30.22s-13.88,29.83-30.45,29.83ZM186.22,34.38c-12.64,0-22.9,10.1-22.9,22.74s10.25,22.51,22.66,22.51,22.59-10.41,22.59-22.66-10.02-22.59-22.36-22.59Z"/>
      <path class="cls-1" d="M231.32,44.33v41.32h-7.94V25.9l43.48,42.71V27.83h7.86v59.51l-43.4-43.02Z"/>
      <path class="cls-2" d="M58.43,82.62h0c3.16-1.24,6.27-2.88,9.15-4.98,19.27-13.73,23.74-40.46,10-59.68C67.08,3.16,48.88-2.89,32.27,1.3h0c-3.39.85-6.78,2.15-9.95,3.9l-2.32,1.47,1.92,2.49c.9-.62,1.92-1.24,3-1.64l3.08-1.4c.27.69,1.06,2.2,1.06,2.37-.34.11-2.56,1.3-3.24,1.64l1.75,3.32,1.02,1.92c1.92-.96,5.99-2.26,5.99-2.26,12.09-3.34,25.54.96,33.23,11.81,9.16,12.77,7.12,30.12-4.13,40.46-.68.51.96,7.4,1.02,8.42l-10-2.6-.17.06-.28.17c-1.41.57-5.67,1.4-7.63,1.31l.34,2.49c1.62.08,4.92-.4,6.22-.91l.62,1.58c-1.02.4-2.03.73-3.05.96l.9,2.88c.73-.11,1.47-.34,2.2-.56l.59,1.72c-.74.23-2.23.59-2.23.59-.34.06-1.92.45-2.54.51-5.48.96-11.02.79-16.33-.51l-.57,2.88c5.99,1.47,12.32,1.58,18.42.4h0c.9-.23,1.81-.45,2.71-.68h0c1.36-.34,2.66-.79,3.96-1.24h0l.57-.23h0Z"/>
      <path class="cls-5" d="M12.88,16.44c1.98-2.2,4.24-4.3,6.78-6.1l.11-.06-1.75-2.37-.11.06c-2.49,1.81-4.75,3.79-6.78,5.99l1.75,2.49Z"/>
      <path class="cls-2" d="M5.37,29.16c1.41-3.95,3.5-7.74,6.16-11.08l-1.87-2.37c-3,3.67-5.37,7.74-6.95,12.09l2.66,1.36Z"/>
      <path class="cls-5" d="M4.2,55.77c-1.36-4.01-2.09-8.14-2.15-12.32l-2.06.57c.11,4.24.9,8.53,2.32,12.66l1.89-.9Z"/>
      <path class="cls-2" d="M10.09,71.05c4.29,4.92,9.49,8.65,15.15,11.13l.74-2.88c-4.92-2.26-9.44-5.54-13.22-9.78l-2.66,1.53Z"/>
      <path class="cls-5" d="M26.9,16.33l-1.24-2.09c-.73.45-1.47.96-2.2,1.47-2.03,1.41-3.84,3.05-5.43,4.86l1.87,1.53c1.47-1.58,3.11-3.11,4.97-4.41.68-.45,1.36-.9,2.03-1.36h0Z"/>
      <path class="cls-5" d="M18.93,23.22l-1.92-1.53c-2.26,2.83-4.07,5.88-5.31,9.15l2.26.91c1.19-3.05,2.83-5.93,4.97-8.53h0Z"/>
      <path class="cls-2" d="M13.45,33.17l-2.26-.79c-1.07,3.28-1.64,6.72-1.7,10.17h2.43c0-3.17.51-6.39,1.53-9.38h0Z"/>
      <path class="cls-5" d="M14.95,54.13l-2.26.85c.96,2.49,2.26,4.86,3.9,7.12.4.56.79,1.07,1.19,1.64l1.81-1.64c-.34-.45-.74-.9-1.07-1.41-1.47-2.09-2.66-4.3-3.56-6.56h0Z"/>
      <path class="cls-5" d="M21.28,64.08l-1.92,1.47c3.22,3.39,7.01,5.99,11.08,7.8l.79-2.32c-3.67-1.58-7.06-3.96-9.95-6.95h0Z"/>
      <path class="cls-2" d="M1.27,33.31c.51.68,1.47.85,2.15.34.73-.51.9-1.47.4-2.15-.51-.73-1.47-.9-2.2-.4-.68.51-.85,1.47-.34,2.2h0Z"/>
      <path class="cls-5" d="M27.86,82.79c.51.73,1.47.85,2.2.4.68-.51.85-1.53.34-2.2-.51-.73-1.47-.9-2.2-.39-.68.51-.85,1.53-.34,2.2h0Z"/>
      <path class="cls-2" d="M17.84,17.48c1.32-1.28,2.8-2.43,4.41-3.46.58-.41,1.2-.7,1.77-1.03-.12-.37-.62-1.28-.91-1.94-.74.33-1.36.74-2.06,1.15-1.73,1.11-3.38,2.39-4.82,3.79l1.61,1.49Z"/>
      <path class="cls-5" d="M9.44,24.71c-2.38,3.97-4.36,12.42-4.36,16.57h2.37c.58-7.34,1.32-9.52,4.24-15.4l-2.26-1.17Z"/>
      <path class="cls-2" d="M9.27,54.02c-1.07-3.16-1.7-6.5-1.75-9.83l-2.66.28c.06,3.5.73,7.01,1.86,10.34l2.54-.79Z"/>
      <path class="cls-2" d="M14.92,64.81c-2.09-2.6-3.84-5.59-5.03-8.7l-2.43,1.19c1.3,3.33,3.11,6.44,5.37,9.21l2.09-1.7Z"/>
      <path class="cls-2" d="M30.69,76.29c-3.16-1.19-6.16-2.83-8.82-4.92l-1.98,1.87c3.22,2.49,6.61,4.46,10,5.6l.79-2.54Z"/>
      <path class="cls-2" d="M41.63,77.32c-2.6-.17-5.14-.68-7.63-1.47l-.62,2.6c2.82.91,5.59,1.41,8.25,1.53v-2.66Z"/>
      <path class="cls-2" d="M11.82,22.63c.51.68,1.47.85,2.15.34.73-.45.9-1.47.4-2.15-.51-.73-1.47-.9-2.2-.4-.68.51-.85,1.47-.34,2.2h0Z"/>
      <path class="cls-5" d="M45.2,79.59c.54.72,1.5.9,2.23.36.72-.48.9-1.5.42-2.23-.54-.66-1.57-.84-2.23-.36-.72.54-.9,1.51-.42,2.23h0Z"/>
      <path class="cls-5" d="M93.75,96.24c1.35,1.81,3.75,2.26,5.55.9,1.8-1.2,2.25-3.76,1.05-5.57-1.35-1.66-3.9-2.11-5.55-.9-1.8,1.35-2.25,3.76-1.05,5.57h0Z"/>
      <g>
        <path class="cls-4" d="M314.68,16.97v59.37h20.34v9.81h-30.78V16.97h10.44Z"/>
        <path class="cls-4" d="M375.17,42.51h10.13v43.64h-10.13v-4.57c-4.15,3.88-8.62,5.83-13.4,5.83-6.03,0-11.02-2.18-14.97-6.54-3.91-4.45-5.87-10.01-5.87-16.67s1.96-11.99,5.87-16.35c3.91-4.36,8.81-6.54,14.7-6.54,5.08,0,9.63,2.09,13.67,6.27v-5.06ZM351.24,64.2c0,4.18,1.12,7.59,3.36,10.22,2.3,2.66,5.2,3.99,8.69,3.99,3.73,0,6.75-1.28,9.05-3.85,2.3-2.66,3.45-6.03,3.45-10.13s-1.15-7.47-3.45-10.13c-2.3-2.6-5.29-3.9-8.96-3.9-3.47,0-6.36,1.31-8.69,3.94-2.3,2.66-3.45,5.94-3.45,9.86Z"/>
        <path class="cls-4" d="M408.1,10.48v37.1c4.03-4.18,8.6-6.27,13.71-6.27,5.88,0,10.78,2.2,14.7,6.59,3.91,4.36,5.87,9.8,5.87,16.31s-1.97,12.28-5.91,16.67c-3.91,4.36-8.86,6.54-14.83,6.54-5.05,0-9.56-1.94-13.53-5.83v4.57h-10.08V10.48h10.08ZM432.07,64.65c0-4.18-1.14-7.59-3.41-10.22-2.3-2.69-5.18-4.03-8.65-4.03-3.7,0-6.72,1.3-9.05,3.9-2.3,2.57-3.45,5.92-3.45,10.04s1.13,7.63,3.41,10.17c2.27,2.6,5.26,3.9,8.96,3.9,3.5,0,6.39-1.3,8.69-3.9,2.33-2.63,3.5-5.91,3.5-9.86Z"/>
      </g>
      <path class="cls-5" d="M140.45,22.16c1.35,1.81,3.75,2.26,5.55.9,1.8-1.2,2.25-3.76,1.05-5.57-1.35-1.66-3.9-2.11-5.55-.9-1.8,1.35-2.25,3.76-1.05,5.57h0Z"/>
      <path class="cls-5" d="M11.2,50.44c1.1,1.47,3.07,1.84,4.54.73,1.47-.98,1.84-3.06.86-4.54-1.1-1.35-3.19-1.72-4.54-.74-1.47,1.1-1.84,3.07-.86,4.54h0Z"/>
      <path class="cls-5" d="M.77,67.56c1.35,1.81,3.75,2.26,5.55.9,1.8-1.2,2.25-3.76,1.05-5.57-1.35-1.66-3.9-2.11-5.55-.9-1.8,1.35-2.25,3.76-1.05,5.57h0Z"/>
      <path class="cls-2" d="M.3,39.63c.51.68,1.47.85,2.15.34.73-.51.9-1.47.4-2.15-.51-.73-1.47-.9-2.2-.4-.68.51-.85,1.47-.34,2.2H.3Z"/>
      <path class="cls-5" d="M267.63,22.16c1.35,1.81,3.75,2.26,5.55.9,1.8-1.2,2.25-3.76,1.05-5.57-1.35-1.66-3.9-2.11-5.55-.9-1.8,1.35-2.25,3.76-1.05,5.57h0Z"/>
    </g>
  </g>
</svg>