<?xml version="1.0" standalone="no"?>
<!DOCTYPE svg PUBLIC "-//W3C//DTD SVG 20010904//EN"
 "http://www.w3.org/TR/2001/REC-SVG-20010904/DTD/svg10.dtd">
<svg version="1.0" xmlns="http://www.w3.org/2000/svg"
 width="129.000000pt" height="198.000000pt" viewBox="0 0 129.000000 198.000000"
 preserveAspectRatio="xMidYMid meet">

<g transform="translate(0.000000,198.000000) scale(0.100000,-0.100000)"
fill="#F0F0F0" stroke="none">
<path d="M614 1970 c-26 -10 -54 -48 -54 -71 0 -9 -7 -22 -15 -29 -17 -14 -21
-60 -5 -60 6 0 10 -30 10 -70 0 -40 -4 -70 -10 -70 -5 0 -10 -9 -10 -19 0 -14
-20 -29 -73 -55 -168 -80 -285 -273 -327 -538 -12 -72 -15 -78 -37 -78 -23 0
-24 -3 -21 -52 l3 -53 570 0 570 0 3 53 c3 49 2 52 -21 52 -22 0 -26 6 -32 48
-40 270 -161 484 -317 562 -34 16 -67 30 -75 30 -7 0 -13 11 -13 25 0 14 -4
25 -10 25 -6 0 -10 30 -10 70 0 40 4 70 10 70 15 0 12 46 -4 59 -8 7 -18 25
-21 41 -11 50 -66 79 -111 60z m14 -238 c3 -61 2 -62 -23 -62 -24 0 -25 2 -25
58 0 63 5 74 30 70 11 -2 16 -19 18 -66z m80 0 c3 -61 2 -62 -23 -62 -24 0
-25 2 -25 58 0 63 5 74 30 70 11 -2 16 -19 18 -66z m207 -374 c56 -122 115
-378 88 -378 -6 0 -14 27 -17 61 -10 89 -54 255 -87 327 -15 34 -25 62 -23 62
3 0 20 -33 39 -72z m-514 25 c-10 -21 -30 -74 -44 -118 -22 -72 -31 -115 -52
-249 -4 -24 -10 -35 -16 -29 -12 12 13 148 48 257 25 78 68 176 78 176 3 0 -3
-17 -14 -37z m336 5 c-3 -8 -6 -5 -6 6 -1 11 2 17 5 13 3 -3 4 -12 1 -19z
m-191 -79 c-8 -46 -17 -120 -20 -164 -11 -131 -17 -168 -27 -158 -10 10 11
196 37 329 22 108 29 103 10 -7z m234 -129 c22 -147 25 -200 11 -200 -5 0 -12
46 -16 103 -4 56 -13 140 -21 187 -7 47 -13 90 -13 95 2 27 21 -64 39 -185z"/>
<path d="M4 826 c-3 -7 -4 -33 -2 -57 l3 -44 643 -3 643 -2 -3 57 -3 58 -638
3 c-537 2 -638 0 -643 -12z"/>
<path d="M75 670 c3 -5 14 -10 24 -10 10 0 23 -6 29 -12 6 -8 12 -89 14 -188
3 -191 11 -219 69 -263 56 -41 182 -43 241 -3 64 43 72 72 78 269 5 186 8 196
53 197 9 0 17 5 17 10 0 6 -37 10 -91 10 -57 0 -88 -4 -84 -10 3 -5 14 -10 24
-10 40 0 46 -25 46 -199 0 -185 -8 -217 -65 -246 -34 -18 -109 -20 -144 -3
-54 24 -61 48 -64 241 -4 186 0 207 39 207 10 0 21 5 24 10 4 6 -33 10 -105
10 -72 0 -109 -4 -105 -10z"/>
<path d="M615 670 c3 -5 17 -10 30 -10 14 0 29 -8 35 -19 12 -24 14 -420 1
-439 -5 -8 -24 -18 -42 -22 -23 -5 4 -8 86 -8 106 -1 116 1 85 11 l-35 12 -3
219 c-2 226 1 246 39 246 10 0 21 5 24 10 4 6 -35 10 -110 10 -75 0 -114 -4
-110 -10z"/>
<path d="M935 666 c-45 -20 -67 -50 -72 -99 -8 -67 13 -95 120 -166 100 -66
124 -96 112 -144 -16 -62 -103 -84 -162 -41 -27 20 -67 71 -76 97 -2 7 -8 9
-12 5 -7 -7 10 -136 20 -146 3 -4 10 0 15 8 7 11 15 12 51 1 134 -40 239 16
239 126 0 55 -29 88 -141 163 -99 65 -119 92 -98 135 35 73 147 47 191 -44 27
-55 33 -40 23 55 -7 67 -11 73 -29 49 -10 -13 -17 -13 -60 0 -59 18 -82 18
-121 1z"/>
<path d="M7 123 c-4 -3 -7 -30 -7 -60 l0 -53 640 0 640 0 0 60 0 60 -633 0
c-349 0 -637 -3 -640 -7z"/>
</g>
</svg>
